<?xml version="1.0" encoding="utf-8"?>
<!-- Generator: Adobe Illustrator 16.0.0, SVG Export Plug-In . SVG Version: 6.00 Build 0)  -->
<!DOCTYPE svg PUBLIC "-//W3C//DTD SVG 1.1//EN" "http://www.w3.org/Graphics/SVG/1.1/DTD/svg11.dtd">
<svg version="1.1" id="圖層_1" xmlns="http://www.w3.org/2000/svg" xmlns:xlink="http://www.w3.org/1999/xlink" x="0px" y="0px"
	 width="589px" height="135px" viewBox="0 0 589 135" enable-background="new 0 0 589 135" xml:space="preserve">
<g>
	<path fill="#0E3150" d="M21.622,103.702c-1.104-9.808-3.639-24.388-4.818-34.185c-1.065-8.837-1.638-23.521,6.532-29.469
		c5.574-4.058,11.556,4.816,14.122,8.617c3.97,5.882,6.945,14.347,10.258,20.602c0.686,1.297,2.562,1.17,3.281,0
		c3.853-6.282,7.204-12.855,11.253-19.021c2.884-4.39,8.037-11.292,14.298-10.266c5.987,0.982,10.183,8.169,11.901,13.382
		c1.684,5.107,2.701,10.463,3.626,15.75c1.087,6.221,1.855,17.518,2.097,23.83c0.119,3.119,0.833,9.242-1.518,11.805
		c-1.583,1.727-4.702-6.188-4.925-6.947c-1.499-5.139-1.899-15.584-2.542-20.876c-0.64-5.264-0.951-11.956-4.631-16.145
		c-4.05-4.608-10.273,0.177-13.547,3.147c-3.042,2.761-4.983,6.588-6.989,10.108c-2.012,3.53-4.639,8.927-9.208,9.44
		c-4.878,0.547-8.814-5.492-11.211-8.873c-2.833-4-6.181-11.316-8.599-15.571c-0.984-1.731-3.416-0.85-3.54,0.959
		c-0.504,7.367,1.153,17.794,0.816,25.177c-0.163,3.584-0.33,22.016-6.836,18.414c-2.145-1.188-4.061,2.094-1.917,3.279
		c16.441,9.104,11.256-39.857,11.736-46.87c-1.18,0.319-2.36,0.639-3.54,0.958c4.636,8.158,15.897,33.154,28.364,24.374
		c5.232-3.687,7.578-10.612,11.048-15.743c1.391-2.058,7.427-9.032,10.495-6.356c2.827,2.465,3.062,8.385,3.519,11.788
		c0.71,5.313,1.156,15.666,2.225,20.926c0.799,3.937,2.087,8.515,5.344,11.153c2.499,2.024,5.579,2.104,7.448-0.715
		c1.74-2.625,1.757-6.541,1.841-9.554c0.145-5.211-0.396-15.453-1.049-20.615c-1.116-8.818-2.355-18.455-5.899-26.691
		c-3.947-9.171-12.981-17.957-22.998-10.634c-9.521,6.961-14.354,18.71-20.34,28.47c1.094,0,2.188,0,3.281,0
		c-3.821-7.216-7.258-16.649-12.124-23.25c-3.806-5.162-9.529-10.911-16.402-7.939c-3.493,1.511-6.221,5.786-7.618,9.127
		c-2.052,4.906-2.477,12.197-2.362,17.465c0.263,12.169,3.979,28.915,5.334,40.948C18.094,106.107,21.896,106.134,21.622,103.702
		L21.622,103.702z"/>
</g>
<g>
	<path fill="#0E3150" d="M123.938,52.914c-3.692-6.196-11.569-5.94-15.793-0.348c-3.651,4.836-2.906,12.728,2.43,16.084
		c4.149,2.613,9.822,0.648,13.043-2.511c3.93-3.859,3.166-9.338-0.735-12.85c-1.815-1.634-4.511,1.044-2.687,2.686
		c2.289,2.061,3.163,4.652,1.018,7.174c-1.81,2.126-4.931,3.354-7.672,2.666c-3.686-0.926-4.44-6.065-3.457-9.088
		c1.563-4.809,7.845-6.475,10.574-1.896C121.911,56.933,125.196,55.023,123.938,52.914L123.938,52.914z"/>
</g>
<g>
	<path fill="#0E3150" d="M120.139,105.342c-2.375-4.583-2.751-10.517-2.983-15.57c-0.057-1.25-0.247-12.682,2.201-12.088
		c2.236,0.543,4.548,4.368,5.354,6.279c1.542,3.658,1.875,7.934,2.216,11.84c0.284,3.254,0.562,6.318-0.451,9.454
		c-0.585,1.81-1.458,3.505-2.523,5.076c-1.904,2.806-2.915-0.194-3.622-2.258c-0.79-2.304-4.46-1.314-3.663,1.01
		c1.224,3.572,3.752,8.235,8.139,5.662c3.595-2.108,5.513-7.897,6.162-11.74c0.797-4.72-0.439-10.55-1.283-15.2
		c-0.867-4.779-2.964-9-6.659-12.233c-6.342-5.55-9.149,3.253-9.586,8.239c-0.645,7.373-0.049,16.754,3.419,23.446
		C117.986,109.436,121.265,107.514,120.139,105.342L120.139,105.342z"/>
</g>
<g>
	<path fill="#0E3150" d="M138.702,55.897c2.931,15.867,3.033,32.151,6.838,47.869c0.576,2.381,4.238,1.371,3.663-1.01
		c-3.804-15.712-3.907-32.004-6.839-47.869C141.921,52.48,138.26,53.503,138.702,55.897L138.702,55.897z"/>
</g>
<g>
	<path fill="#0E3150" d="M142.637,57.495c0.784-1,2.028-3.015,3.435-1.849c0.992,0.821,1.609,2.138,2.208,3.249
		c1.287,2.391,2.229,4.951,3.531,7.334c0.455,0.831,1.786,1.293,2.6,0.682c4.763-3.585,10.656-9.55,16.928-10.032
		c8.325-0.639,9.726,15.077,11.095,20.406c0.916,3.564,2.186,7.549,4.248,10.636c1.472,2.202,3.537,3.942,5.021,6.136
		c0.516,0.764,0.099,0.664,0.646,0.442c-0.744,0.301-1.655,0.202-2.434,0.196c-1.748-0.012-3.328-0.34-4.858-1.164
		c-2.541-1.368-4.169-4.042-5.503-6.495c-3.697-6.797-6.429-22.271-17.365-17.614c-10.151,4.324-6.073,20.048-6.229,28.367
		c-0.029,1.521-0.09,3.523-1.17,4.721c-1.223,1.355-4.057,0.153-5.391-0.32c-2.313-0.822-3.301,2.849-1.01,3.662
		c3.828,1.36,8.548,1.696,10.41-2.695c1.853-4.369,0.843-9.84,0.579-14.417c-0.281-4.875-0.907-11.492,3.109-15.093
		c4.668-4.186,7.722,1.683,9.375,5.355c2.285,5.076,4.011,10.369,7.61,14.721c1.546,1.868,3.562,3.18,5.799,4.057
		c2.324,0.91,6.742,1.464,8.98,0.013c4.435-2.874-0.993-7.922-3.122-10.354c-5.957-6.807-5.59-17.275-8.931-25.319
		c-2.279-5.492-6.242-9.737-12.536-8.843c-6.41,0.91-12.228,6.633-17.169,10.354c0.865,0.227,1.731,0.455,2.599,0.682
		c-2.066-3.778-3.271-8.205-6.333-11.352c-2.999-3.081-6.632-0.925-8.808,1.85C138.457,56.713,141.126,59.422,142.637,57.495
		L142.637,57.495z"/>
</g>
<g>
	<path fill="#0E3150" d="M228.36,70.844c-1.837,8.114-9.569,17.869-18.902,15.514c-9.03-2.277-10.342-14.582-10.239-22.125
		c0.119-8.745,2.666-16.752,10.503-21.423c7.712-4.597,19.245-3.754,24.854,3.766c4.796,6.429,5.415,15.842,5.947,23.556
		c0.577,8.359,0.713,16.896-1.323,25.078c-3.551,14.261-17.351,24.707-32.146,23.692c-1.026-0.07-3.399-0.332-3.509-1.701
		c-0.167-2.068,2.301-4.758,3.821-5.867c4.511-3.293,10.873-3.895,15.856-6.377c11.117-5.538,13.822-22.012,8.609-32.286
		c-1.108-2.185-4.387-0.262-3.28,1.917c4.293,8.464,1.986,21.467-6.46,26.655c-5.848,3.592-14.557,3.378-19.076,9.034
		c-2.727,3.412-5.384,8.906-0.147,11.443c4.537,2.197,10.843,0.915,15.472-0.311c14.625-3.871,23.744-16.694,25.672-31.165
		c1.085-8.144,0.73-16.437-0.073-24.589c-0.736-7.486-2.015-15.544-6.621-21.719c-6.593-8.839-19.45-9.375-28.647-4.876
		c-10.169,4.976-13.121,15.687-13.264,26.183c-0.136,9.943,3,22.245,13.955,25.009c10.9,2.75,20.536-9,22.665-18.397
		C232.564,69.468,228.901,68.455,228.36,70.844L228.36,70.844z"/>
</g>
<g>
	<path fill="#0E3150" d="M208.037,57.473c-3.148,4.614-5.005,12.268,0.458,16.07c5.768,4.014,12.977-0.664,16.539-5.411
		c3.38-4.504,3.969-11.55-0.88-15.254c-5.101-3.897-11.419-0.902-15.061,3.451c-1.561,1.865,1.112,4.568,2.686,2.686
		c2.361-2.821,6.014-5.495,9.705-3.392c3.711,2.113,2.482,7.056,0.696,9.964c-2.062,3.356-7.35,7.294-11.381,4.945
		c-4.022-2.345-1.341-8.417,0.518-11.142C212.703,57.36,209.409,55.462,208.037,57.473L208.037,57.473z"/>
</g>
<g>
	<path fill="#0E3150" d="M259.445,33.357c0.044,20.169,1.059,40.393,1.601,60.556c0.099,3.678,0.396,25.522,8.904,18.778
		c5.232-4.148,5.859-12.299,5.902-18.344c0.029-3.979-0.168-8.188,1.653-11.846c1.51-3.031,4.417-3.986,7.44-4.755
		c5.842-1.485,13.259-2.851,19.278-1.728c7.035,1.312,4.392,17.588,4.504,22.332c0.146,6.172-4.187,14.385,4.455,16.643
		c5.688,1.484,7.82-6.729,9.26-10.469c3.142-8.168,0.522-18.418-0.321-26.789c-1.104-10.93,0.344-22.025,0.39-32.982
		c0.023-5.763,1.442-11.665-0.437-17.295c-1.74-5.218-7.604-6.531-11.745-3.18c-4.652,3.767-4.592,12.384-5.088,17.757
		c-0.335,3.612-0.39,7.238-0.724,10.847c-0.433,4.67-3.635,7.688-7.812,9.393c-6.114,2.495-13.618,3.313-20.164,2.615
		c0.609,0.465,1.221,0.93,1.832,1.395c-1.623-9.634-0.431-19.632-2.041-29.334c-0.606-3.652-1.57-8-4.742-10.297
		c-3.581-2.593-7.848,1.351-10.069,3.841c-1.625,1.821,1.053,4.518,2.687,2.686c1.645-1.843,4.476-5.225,6.405-2.087
		c1.992,3.24,2.284,7.801,2.659,11.479c0.835,8.173,0.073,16.622,1.438,24.721c0.148,0.885,1.049,1.312,1.832,1.395
		c7.223,0.771,15.816-0.256,22.456-3.279c7.111-3.239,9.243-8.772,9.547-16.16c0.271-6.623,0.059-15.242,3.486-21.113
		c1.884-3.226,5.545-2.172,6.589,0.957c1.042,3.126,0.662,6.798,0.449,10.026c-0.622,9.378-0.817,18.818-1.065,28.217
		c-0.259,9.71,1.898,19.215,1.883,28.903c-0.007,3.66-0.946,6.854-2.189,10.236c-0.53,1.445-1.166,2.918-2.171,4.104
		c-0.643,0.76-1.316,0.868-2.234,0.466c-2.032-0.892-2.024-2.703-1.76-4.517c0.521-3.555,0.992-6.519,0.967-10.125
		c-0.031-4.34,0.313-8.661-0.123-12.991c-0.507-5.003-2.913-10.7-8.545-11.269c-5.794-0.584-11.897,0.338-17.58,1.431
		c-5.282,1.016-9.872,2.688-12.413,7.79c-3.209,6.441-0.958,14.253-2.426,21.072c-0.563,2.619-2.172,5.709-4.147,7.568
		c-0.195,0.184,0.17,0.411-0.246-0.275c-0.473-0.782-0.67-1.748-0.888-2.623c-1.208-4.854-1.229-10.082-1.329-15.055
		c-0.391-19.559-1.513-39.134-1.556-58.695C263.239,30.908,259.44,30.907,259.445,33.357L259.445,33.357z"/>
</g>
<g>
	<path fill="#0E3150" d="M372.389,53.296c-7.821-10.568-22.233-11.677-31.874-2.783c-4.303,3.97-6.505,10.066-5.644,15.854
		c1.104,7.402,5.744,11.497,11.432,15.8c4.868,3.685,14.782,10.176,10.713,17.71c-1.624,3.006-11.053-3.895-12.676-4.928
		c-3.883-2.473-8.613-4.861-13.29-2.785c-4.729,2.1-3.103,7.625-1.218,11.173c4.725,8.894,14.036,14.308,24.03,14.377
		c9.448,0.065,21.679-6.856,23.338-16.909c1.278-7.744-5.091-14.422-10-19.514c-4.908-5.093-13.694-11.588-13.549-19.439
		c-0.464,0.611-0.93,1.221-1.394,1.832c5.833-1.428,9.305,3.693,12.993,7.284c3.807,3.705,8.249,5.169,13.372,3.271
		c10.621-3.935-1.785-16.577-5.772-20.567c-1.733-1.735-4.42,0.951-2.688,2.686c2.765,2.766,5.516,5.584,7.558,8.942
		c0.782,1.288,1.904,3.386,0.698,4.726c-1.705,1.893-5.52,1.562-7.528,0.535c-3.477-1.778-5.83-5.525-8.804-7.982
		c-3.182-2.629-6.827-3.538-10.841-2.556c-0.828,0.203-1.379,1.003-1.395,1.832c-0.204,10.896,12.261,19.012,18.592,26.419
		c3.438,4.02,6.659,9.266,4.179,14.58c-3.977,8.521-15.005,12.238-23.69,10.604c-7.095-1.335-12.819-6.388-16.136-12.632
		c-0.841-1.582-2.153-4.598,0.242-5.355c2.573-0.813,5.229,0.227,7.396,1.52c4.309,2.57,8.519,5.996,13.519,7.096
		c5.146,1.131,7.385-2.95,7.487-7.488c0.167-7.369-5.562-11.871-10.916-15.971c-6.312-4.836-12.388-9.059-12.016-17.875
		c0.283-6.709,5.999-11.861,12.015-13.793c7.009-2.251,14.271,0.428,18.585,6.257C370.548,57.16,373.848,55.269,372.389,53.296
		L372.389,53.296z"/>
</g>
<g>
	<path fill="#0E3150" d="M390.248,58.888c3.766-0.905,7.59-1.585,11.397-2.279c-0.779-0.779-1.558-1.558-2.337-2.336
		c-1.914,11.653-2.789,34.469,13.348,35.827c8.892,0.748,11.691-10.602,13.04-17.271c1.395-6.89,2.005-14.066,2.038-21.096
		c-0.633,0.633-1.267,1.266-1.898,1.899c4.428-0.121,8.869-0.184,13.297,0.005c-0.611-0.465-1.223-0.93-1.832-1.395
		c2.179,9.042,2.901,18.347,4.518,27.492c0.775,4.39,1.893,8.668,3.383,12.867c0.391,1.101,0.713,2.221,0.97,3.358
		c0.092,0.411,0.117,0.788,0.122,1.205c0.004,0.53,0.657-0.795,1.051-0.696c-2.896-0.73-5.961-5.224-7.833-7.324
		c-1.761-1.976-3.47-4.004-5.112-6.078c-1.331-1.681-3.42,0.223-3.176,1.848c-0.121-0.809-0.007,1.462-0.047,1.957
		c-0.143,1.756-0.811,3.441-1.708,4.938c-4.137,6.89-14.683,7.769-21.771,7.349c-17.644-1.046-15.013-28.613-16.053-40.581
		c-0.211-2.421-4.011-2.442-3.799,0c1.326,15.267-1.117,42.258,19.852,44.38c11.414,1.155,29.385-4.472,27.189-19.052
		c-1.06,0.617-2.117,1.232-3.175,1.849c2.25,2.839,4.616,5.595,7.086,8.245c1.979,2.124,5.903,7.129,9.359,6.158
		c4.974-1.398-0.76-12.941-1.358-15.248c-2.87-11.047-3.161-22.585-5.833-33.676c-0.203-0.844-1.004-1.359-1.832-1.395
		c-4.428-0.189-8.869-0.126-13.297-0.005c-1.039,0.028-1.896,0.843-1.899,1.9c-0.024,5.254-0.438,10.546-1.169,15.746
		c-0.666,4.749-2.106,18.29-8.709,18.831c-14.02,1.151-12.513-22.342-11.085-31.026c0.244-1.486-0.829-2.611-2.338-2.336
		c-3.809,0.694-7.632,1.375-11.396,2.279C386.857,55.797,387.867,59.461,390.248,58.888L390.248,58.888z"/>
</g>
<g>
	<path fill="#0E3150" d="M496.701,78.67c-13.816-11.721-41.727-5.475-38.724,15.909c1.422,10.125,8.904,17.546,19.387,15.96
		c9.302-1.408,18.289-7.217,24.656-13.986c-1.059-0.279-2.116-0.559-3.176-0.838c1.42,4.909,6.176,11.512,12.011,10.766
		c2.759-0.354,4.681-2.69,5.663-5.142c1.175-2.932,0.411-5.514-0.741-8.36c-1.278-3.156-2.956-6.141-4.58-9.127
		c-1.695-3.123-2.514-6.177-3.442-9.601c-1.907-7.023-4.223-14.222-8.666-20.091c-10.035-13.252-29.591-9.578-41.362-0.666
		c-4.376,3.312-8.89,8.639-7.274,14.512c0.587,2.135,2.743,4.788,4.893,5.48c2.357,0.763,4.632-1.162,6.373-2.486
		c6.195-4.715,13.117-10.605,21.526-9.365c8.045,1.186,10.39,11.592,11.804,18.124c0.519,2.396,4.182,1.38,3.664-1.01
		c-1.481-6.843-3.592-14.299-9.436-18.7c-4.65-3.503-11.172-2.475-16.283-0.776c-3.649,1.213-6.905,3.543-9.917,5.874
		c-1.513,1.17-2.992,2.384-4.535,3.513c-1.739,1.273-2.372,1.37-3.77-0.438c-4.832-6.262,7.575-13.598,11.734-15.6
		c7.867-3.786,18.805-5.444,26.139,0.274c5.994,4.674,8.629,12.726,10.701,19.722c0.928,3.133,1.438,6.544,2.716,9.549
		c1.329,3.123,3.22,6.036,4.754,9.062c1.546,3.053,3.426,6.277,1.77,9.565c-2.436,4.828-7.19-0.562-8.8-3.127
		c-0.579-0.925-0.974-1.919-1.274-2.963c-0.388-1.336-2.179-1.899-3.175-0.838c-5.054,5.371-11.584,9.713-18.604,12.011
		c-3.534,1.156-7.289,1.559-10.862,0.385c-4.336-1.428-6.474-5.992-7.63-10.037c-5.344-18.689,19.901-24.94,31.777-14.869
		C495.871,82.932,498.573,80.257,496.701,78.67L496.701,78.67z"/>
</g>
<g>
	<path fill="#0E3150" d="M483.581,83.812c-4.619-0.377-8.941,2.963-10.528,7.162c-1.709,4.524,2.646,8.377,6.912,8.399
		c8.201,0.042,14.949-13.386,4.882-16.253c-2.361-0.673-3.361,2.993-1.01,3.663c5.764,1.642-0.125,8.03-3.528,8.767
		c-2.423,0.525-4.45-1.749-3.423-3.973c1.148-2.487,3.989-4.186,6.695-3.965C486.025,87.811,486.006,84.009,483.581,83.812
		L483.581,83.812z"/>
</g>
<g>
	<path fill="#0E3150" d="M517.273,53.858c1.417,3.316,1.36,7.65,1.68,11.177c0.534,5.895,0.94,11.797,1.525,17.686
		c0.562,5.654,1.25,11.336,2.56,16.872c0.845,3.562,2.042,7.86,4.931,10.349c2.712,2.339,6.217,1.529,8.733-0.655
		c4.769-4.136,3.597-13.252,3.386-18.748c-0.28-7.325-0.078-18.021,8.801-20.534c4.028-1.139,8.04,2.922,10.473,5.514
		c3.569,3.803,3.931,8.789,4.309,13.738c0.498,6.503,2.002,11.042,6.688,15.715c2.551,2.541,6.825,5.014,9.772,1.684
		c2.856-3.229,2.317-9.113,1.959-13.028c-0.55-5.965-1.915-12.013-3.353-17.819c-2.231-9.023-6.349-18.657-15.538-22.404
		c-5.15-2.101-11.212-2.496-16.677-1.574c-6.967,1.175-11.376,7.142-16.034,11.886c1.06,0.279,2.116,0.559,3.176,0.838
		c-0.688-4.675-0.409-10.962-3.501-14.865c-3.475-4.385-9.182-1.543-12.967,0.812c-2.075,1.292-0.169,4.579,1.917,3.28
		c3.474-2.161,7.535-4.492,9.137,0.561c1.135,3.581,1.206,7.522,1.75,11.221c0.215,1.456,2.265,1.767,3.176,0.838
		c3.204-3.263,6.105-6.913,10.004-9.39c3.895-2.476,9.951-2.104,14.339-1.35c6.974,1.199,11.606,5.908,14.536,12.094
		c3.209,6.78,4.329,14.604,5.643,21.917c0.643,3.573,0.986,7.152,0.688,10.779c-0.105,1.278-0.382,2.887-1.263,3.882
		c-1.098,1.24-4.293-2.264-4.909-2.879c-6.71-6.689-3.197-16.04-6.963-23.951c-2.677-5.619-9.778-12.522-16.629-11.294
		c-6.49,1.164-11.475,8.585-12.21,14.815c-0.866,7.353,1.099,14.953-0.636,22.211c-0.431,1.805-1.997,4.796-4.338,4.354
		c-1.625-0.307-2.527-2.518-3.117-3.822c-2.491-5.513-3.051-12.178-3.729-18.107c-0.783-6.857-1.229-13.748-1.838-20.622
		c-0.38-4.285-0.484-9.084-2.198-13.095C519.594,49.694,516.322,51.632,517.273,53.858L517.273,53.858z"/>
</g>
<g>
	<g>
		<polygon fill="#0E3150" points="501.253,15.746 497.556,35.961 501.253,56.177 504.948,35.961 		"/>
		<polyline fill="#0E3150" points="481.035,35.961 501.253,39.658 521.468,35.961 		"/>
		<polyline fill="#0E3150" points="521.468,35.961 501.253,32.265 481.035,35.961 		"/>
	</g>
	<g>
		<polygon fill="#0E3150" points="541.878,30.473 539.812,41.772 541.878,53.073 543.944,41.772 		"/>
		<polyline fill="#0E3150" points="530.578,41.772 541.878,43.839 553.179,41.772 		"/>
		<polyline fill="#0E3150" points="553.179,41.772 541.878,39.707 530.578,41.772 		"/>
	</g>
	<g>
		<polygon fill="#0E3150" points="523.61,4.531 522.388,11.215 523.61,17.898 524.83,11.215 		"/>
		<polyline fill="#0E3150" points="516.927,11.215 523.61,12.437 530.293,11.215 		"/>
		<polyline fill="#0E3150" points="530.293,11.215 523.61,9.993 516.927,11.215 		"/>
	</g>
</g>
<g>
	<polygon fill="#0E3150" points="99.026,13.773 95.908,30.823 99.026,47.872 102.143,30.823 	"/>
	<polyline fill="#0E3150" points="81.976,30.823 99.026,33.94 116.074,30.823 	"/>
	<polyline fill="#0E3150" points="116.074,30.823 99.026,27.705 81.976,30.823 	"/>
</g>
<g>
	<polygon fill="#0E3150" points="123.218,12.753 121.996,19.437 123.218,26.12 124.439,19.437 	"/>
	<polyline fill="#0E3150" points="116.535,19.437 123.218,20.659 129.901,19.437 	"/>
	<polyline fill="#0E3150" points="129.901,19.437 123.218,18.215 116.535,19.437 	"/>
</g>
</svg>
