<?xml version="1.0" encoding="utf-8"?>
<!-- Generator: Adobe Illustrator 16.0.0, SVG Export Plug-In . SVG Version: 6.00 Build 0)  -->
<!DOCTYPE svg PUBLIC "-//W3C//DTD SVG 1.1//EN" "http://www.w3.org/Graphics/SVG/1.1/DTD/svg11.dtd">
<svg version="1.1" id="圖層_1" xmlns="http://www.w3.org/2000/svg" xmlns:xlink="http://www.w3.org/1999/xlink" x="0px" y="0px"
	 width="305.965px" height="125.964px" viewBox="0 0 305.965 125.964" enable-background="new 0 0 305.965 125.964"
	 xml:space="preserve">
<g>
	<path fill="#0C304E" d="M72.097,4.936C56.675-3,35.466-1.778,23.338,11.609c-6.003,6.626-7.565,15.344-6.268,23.958
		c1.575,10.456,8.602,17.188,17.008,22.791c7.646,5.097,21.683,12.215,18.292,23.673c-1.519,5.134-8.569,5.522-12.799,4.803
		c-4.105-0.698-6.538-2.876-9.526-5.555c-5.154-4.62-10.802-10.859-17.808-12.485C4.842,67.077,0.852,75.051,1.219,81.36
		c0.508,8.738,9.369,16.279,15.61,21.328c6.809,5.508,13.992,9.705,22.807,10.856c17.667,2.308,38.072-6.664,42.882-25.002
		c2.508-9.562-0.937-20.666-6.777-28.348c-6.707-8.821-17.86-12.159-25.325-20.085c-3.399-3.609-5.288-9.735-0.192-12.634
		c4.951-2.817,11.351,1.099,15.135,4.139c4.765,3.829,12.843,13.824,20.003,10.126c6.058-3.128,6.364-10.983,4.477-16.652
		C86.981,16.503,79.826,9.302,72.097,4.936c-3.654-2.064-6.929,3.551-3.28,5.612c5.411,3.057,9.736,7.273,12.966,12.58
		c1.298,2.132,2.146,4.431,2.651,6.865c0.285,1.374-0.15,5.739-2.021,5.971c-3.205,0.396-7.634-4.806-9.769-6.664
		c-3.494-3.041-7.014-5.91-11.324-7.691c-8.016-3.313-18.914-0.611-20.627,8.853c-1.9,10.495,8.549,17.99,16.188,22.833
		c10.202,6.466,18.672,13.831,19.864,26.687c0.908,9.796-5.137,17.946-13.216,22.739c-8.604,5.105-19.341,5.913-28.821,3.128
		c-8.572-2.518-16.418-9.648-22.208-16.166c-2.821-3.175-5.434-6.951-4.48-11.33c0.735-3.377,2.157-3.816,5.055-2.356
		c6.381,3.214,11.097,9.206,16.678,13.538c6.362,4.938,16.241,5.556,23.173,1.465c8.312-4.906,7.194-15.259,3.186-22.544
		c-4.538-8.246-14.42-12.586-21.787-17.789c-8.558-6.044-13.084-15.784-10.66-26.235c4.405-18.991,30.73-21.302,45.151-13.882
		C72.537,12.463,75.826,6.854,72.097,4.936z"/>
</g>
<g>
	<path fill="#0C304E" d="M101.207,10.742c1,33.199-0.81,68.552-11.884,100.136c-1.391,3.966,4.89,5.656,6.268,1.728
		c11.245-32.069,13.131-68.157,12.116-101.864C107.581,6.561,101.081,6.548,101.207,10.742L101.207,10.742z"/>
</g>
<g>
	<path fill="#0C304E" d="M105.755,13.04c2.16-1.949,7.548-7.271,10.591-4.164c2.832,2.89,2.898,8.942,3.115,12.662
		c0.587,10.076-0.5,20.4-2.138,30.34c-0.609,3.693,3.726,5.545,5.94,2.504c4.439-6.098,10.187-11.526,15.777-16.54
		c2.884-2.587,14.956-14.083,19.517-10.172c7.321,6.276-6.837,19.588-10.689,23.402c-7.534,7.459-16.614,13.5-23.709,21.371
		c-1.162,1.289-1.333,3.329,0,4.596c5.545,5.272,13.518,8.294,20.221,11.752c7.019,3.621,16.737,7.592,21.337,14.373
		c1.482,2.185,0.359,4.281-2.071,5.163c-4.122,1.496-9.398-0.167-13.396-1.302c-9.834-2.792-19.608-7.482-28.153-13.09
		c-1.821-1.195-4.168,0.032-4.774,1.942c-1.546,4.877-3.073,10.303-6.878,13.944c-3.985,3.813-11.31,2.546-16.125,1.786
		c-4.099-0.647-5.859,5.615-1.728,6.268c6.843,1.081,14.43,1.984,20.562-1.975c6.046-3.904,8.391-11.84,10.436-18.295
		c-1.591,0.647-3.183,1.295-4.774,1.942c9.636,6.324,20.761,11.397,31.898,14.347c7.299,1.933,21.761,2.846,22.268-8.193
		c0.41-8.932-11.409-14.886-17.864-18.534c-5.12-2.894-10.408-5.481-15.627-8.188c-3.614-1.874-7.754-3.701-10.737-6.536
		c0,1.532,0,3.064,0,4.596c8.708-9.66,19.917-16.815,28.653-26.542c6.034-6.718,14.612-19.823,5.343-27.77
		c-7.497-6.427-18.826,2.729-24.592,7.356c-7.518,6.032-14.817,13.201-20.507,21.018c1.98,0.834,3.96,1.669,5.94,2.504
		c2.078-12.608,3.538-25.849,1.702-38.563c-0.723-5.003-2.597-10.934-7.679-13.019c-6.023-2.47-12.308,2.677-16.455,6.42
		C98.041,11.258,102.653,15.84,105.755,13.04L105.755,13.04z"/>
</g>
<g>
	<path fill="#0C304E" d="M199.817,23.936c-8.208,4.35-14.739,13.705-15.921,22.936c-1.417,11.064,7.819,14.51,17.193,12.339
		c10.046-2.326,14.793-12.924,13.954-22.496c-0.766-8.735-7.854-15.807-16.226-9.78c-3.369,2.424-0.129,8.066,3.28,5.612
		c5.175-3.725,6.521,2.144,6.564,6.628c0.072,7.593-4.235,12.868-11.58,14.246c-6.691,1.256-7.631-3.481-6.072-8.804
		c1.804-6.158,6.419-12.067,12.088-15.071C206.802,27.585,203.518,21.975,199.817,23.936L199.817,23.936z"/>
</g>
<g>
	<path fill="#0C304E" d="M188.321,71.876c6.695-0.954,13.366-1.798,20.136-1.884c-1.083-1.083-2.167-2.167-3.25-3.25
		c-2.031,17.971-4.894,35.875-5,54c1.083-1.083,2.167-2.167,3.25-3.25c-5.729,0.007-11.414,0.183-16.864,2.116
		c-3.922,1.391-2.233,7.673,1.728,6.268c4.931-1.749,9.959-1.877,15.136-1.884c1.779-0.002,3.24-1.477,3.25-3.25
		c0.106-18.125,2.969-36.029,5-54c0.198-1.749-1.628-3.271-3.25-3.25c-7.35,0.093-14.599,1.081-21.864,2.116
		C182.457,66.197,184.223,72.46,188.321,71.876L188.321,71.876z"/>
</g>
<g>
	<path fill="#0C304E" d="M184.207,68.742c-2.067,18.308-4.731,36.483-1.884,54.864c0.64,4.132,6.903,2.372,6.268-1.728
		c-2.742-17.7,0.127-35.519,2.116-53.136C191.177,64.581,184.672,64.626,184.207,68.742L184.207,68.742z"/>
</g>
<g>
	<path fill="#0C304E" d="M236.207,9.742c0.896,33.405-3.904,66.616-4,100c-0.012,4.192,6.488,4.191,6.5,0
		c0.096-33.384,4.896-66.595,4-100C242.595,5.559,236.095,5.548,236.207,9.742L236.207,9.742z"/>
</g>
<g>
	<path fill="#0C304E" d="M242.321,12.876c2.864-0.995,9.094-4.089,12.152-2.413c2.082,1.141,0.953,8.886,0.876,10.645
		c-0.677,15.396-2.666,31.024-2.047,46.434c0.448,11.165,6.291,45.315-13.981,40.067c-4.062-1.052-5.783,5.218-1.729,6.268
		c27.376,7.087,22.946-30.123,22.21-46.334c-0.803-17.651,2.724-35.254,2.131-52.914c-0.139-4.124-1.19-8.667-5.402-10.35
		c-4.944-1.976-11.293,0.717-15.938,2.331C236.659,7.975,238.351,14.255,242.321,12.876L242.321,12.876z"/>
</g>
<g>
	<path fill="#0C304E" d="M279.207,13.742c0,32.667,0,65.333,0,98c0,4.191,6.5,4.191,6.5,0c0-32.667,0-65.333,0-98
		C285.707,9.551,279.207,9.551,279.207,13.742L279.207,13.742z"/>
</g>
<g>
	<path fill="#0C304E" d="M284.098,15.548c2.438-1.636,6.588-4.606,9.727-3.088c2.723,1.317,3.594,5.243,4.21,7.883
		c2.298,9.838,1.255,20.672,0.553,30.643c-0.734,10.412-1.61,20.393-0.939,30.856c0.304,4.733,0.682,9.455,0.817,14.197
		c0.131,4.59-0.649,9.141-0.365,13.711c0.279,4.482,0.708,8.91-5.315,8.05c-3.834-0.547-7.873-3.19-9.193-6.922
		c-1.388-3.923-7.669-2.234-6.268,1.728c2.63,7.438,10.959,12.804,18.91,11.646c10.725-1.562,7.868-11.648,8.474-19.51
		c0.911-11.837-1.314-23.572-0.975-35.4c0.151-5.243,0.75-10.482,1.157-15.709c0.952-12.229,2.351-25.789-1.311-37.71
		c-1.337-4.353-3.814-8.077-8.143-9.794c-4.904-1.946-10.674,1.159-14.62,3.808C277.356,12.259,280.606,17.892,284.098,15.548
		L284.098,15.548z"/>
</g>
</svg>
