<?xml version="1.0" encoding="utf-8"?>
<!-- Generator: Adobe Illustrator 22.0.1, SVG Export Plug-In . SVG Version: 6.00 Build 0)  -->
<svg version="1.1" id="layer" xmlns="http://www.w3.org/2000/svg" xmlns:xlink="http://www.w3.org/1999/xlink" x="0px" y="0px"
	 viewBox="0 0 477 78" style="enable-background:new 0 0 477 78;" xml:space="preserve">
<style type="text/css">
	.st0{fill:#E1CD8D;}
</style>
<path id="_x2B__1_" class="st0" d="M457,20c0,13.3-6.7,20-20,20c13.3,0,20,6.7,20,20c0-13.3,6.7-20,20-20C463.7,40,457,33.3,457,20z
	"/>
<path id="_x2B_" class="st0" d="M20,20c0,13.3-6.7,20-20,20c13.3,0,20,6.7,20,20c0-13.3,6.7-20,20-20C26.7,40,20,33.3,20,20z"/>
<path id="e" class="st0" d="M61.3,18h25.1v8.6H70v8.3h16.4v8.4H70v12.1h16.4V64H61.3V18z"/>
<path id="x" class="st0" d="M91.5,18h9.8l9.7,14.8l9.7-14.8h9.8L116,40.3L131.5,64h-9.8l-10.6-16.2L100.5,64h-9.9l15.5-23.7L91.5,18
	z"/>
<path id="p" class="st0" d="M138,18h9.3c5,0,8.6,0.5,10.9,1.4c2.2,0.9,4,2.4,5.2,4.5c1.3,2.1,1.9,4.6,1.9,7.5c0,3.2-0.8,5.9-2.5,8
	c-1.7,2.1-4,3.6-6.8,4.4c-1.7,0.5-4.8,0.7-9.2,0.7V64H138V18z M146.8,36h2.8c2.2,0,3.7-0.2,4.6-0.5c0.9-0.3,1.5-0.8,2-1.6
	c0.5-0.7,0.7-1.6,0.7-2.6c0-1.8-0.7-3.1-2.1-3.9c-1-0.6-2.9-0.9-5.6-0.9h-2.5V36z"/>
<path id="e_1_" class="st0" d="M173.9,18H199v8.6h-16.4v8.3H199v8.4h-16.4v12.1H199V64h-25.1V18z"/>
<path id="r" class="st0" d="M207.8,18h9.3c5.1,0,8.7,0.5,10.8,1.4s3.9,2.4,5.2,4.5c1.3,2.1,2,4.6,2,7.5c0,3-0.7,5.5-2.2,7.6
	s-3.6,3.6-6.5,4.6L237.2,64h-9.6l-10.3-19.5h-0.8V64h-8.8V18z M216.5,36h2.7c2.8,0,4.7-0.4,5.7-1.1c1-0.7,1.6-1.9,1.6-3.6
	c0-1-0.3-1.9-0.8-2.6c-0.5-0.7-1.2-1.3-2.1-1.6s-2.5-0.5-4.8-0.5h-2.4V36z"/>
<path id="i" class="st0" d="M243.7,18h8.7v46h-8.7V18z"/>
<path id="e_2_" class="st0" d="M262.2,18h25.1v8.6h-16.4v8.3h16.4v8.4h-16.4v12.1h16.4V64h-25.1V18z"/>
<path id="n" class="st0" d="M295.5,18h8.4l19.7,30.2V18h8.8v46h-8.4l-19.6-30.2V64h-8.8V18z"/>
<path id="c" class="st0" d="M385.1,26.1l-6.1,5.8c-4.2-4.4-8.8-6.6-14.1-6.6c-4.4,0-8.1,1.5-11.1,4.5c-3,3-4.5,6.7-4.5,11.1
	c0,3.1,0.7,5.8,2,8.2c1.3,2.4,3.2,4.2,5.7,5.6s5.1,2,8.1,2c2.5,0,4.9-0.5,7-1.4c2.1-0.9,4.4-2.7,6.9-5.2l5.9,6.2
	c-3.4,3.3-6.6,5.6-9.6,6.9c-3,1.3-6.5,1.9-10.3,1.9c-7.1,0-13-2.3-17.5-6.8c-4.6-4.5-6.8-10.3-6.8-17.4c0-4.6,1-8.7,3.1-12.2
	c2.1-3.6,5-6.4,8.9-8.6c3.9-2.2,8-3.2,12.5-3.2c3.8,0,7.4,0.8,11,2.4C379.5,20.9,382.6,23.2,385.1,26.1z"/>
<path id="e_3_" class="st0" d="M392.8,18h25.1v8.6h-16.4v8.3h16.4v8.4h-16.4v12.1h16.4V64h-25.1V18z"/>
</svg>
