<?xml version="1.0" encoding="utf-8"?>
<!-- Generator: Adobe Illustrator 16.0.0, SVG Export Plug-In . SVG Version: 6.00 Build 0)  -->
<!DOCTYPE svg PUBLIC "-//W3C//DTD SVG 1.1//EN" "http://www.w3.org/Graphics/SVG/1.1/DTD/svg11.dtd">
<svg version="1.1" id="圖層_1" xmlns="http://www.w3.org/2000/svg" xmlns:xlink="http://www.w3.org/1999/xlink" x="0px" y="0px"
	 width="452.653px" height="123.39px" viewBox="0 0 452.653 123.39" enable-background="new 0 0 452.653 123.39"
	 xml:space="preserve">
<g>
	<path fill="#DCC88B" d="M0.009,19.37C0.91,32.812,1.978,46.214,3.852,59.563c2.176,15.497,4.757,33.352,13.702,46.621
		c3.261,4.838,7.669,8.246,13.59,8.758c6.6,0.569,11.873-4.559,15.553-9.343C56.91,92.325,60.155,74.747,67.204,59.833
		c0.832-1.761,1.741-3.62,2.943-5.165c-1.811-0.478-3.622-0.956-5.432-1.434c4.626,13.637,3.498,29.215,5.627,43.36
		c1.548,10.282,5.623,26.123,19.304,22.904c12.181-2.866,18.447-15.788,24.081-25.616c8.344-14.559,15.931-29.563,23.405-44.583
		c2.474-4.971,4.929-9.951,7.334-14.955c0.99-2.059,0.09-3.934-1.942-4.774c-5.907-2.444-11.814-4.89-17.722-7.334
		c-1.73-0.716-3.453,0.77-3.998,2.27c-4.739,13.062-9.976,26.015-16.074,38.503c-1.746,3.575-3.62,7.089-5.708,10.476
		c-1.79,2.903-4.635,8.243-8.053,9.513c1.085-0.403,0.854,0.445,0.366-1.471c-0.421-1.654-0.504-3.392-0.619-5.087
		c-0.296-4.399-0.26-8.822-0.377-13.228c-0.333-12.443-5.22-45.743-25.374-36.742c-20.76,9.272-20.39,38.832-33.758,54.603
		c1.811,0.478,3.621,0.956,5.432,1.434c-5.943-15.121,0.09-88.109-34.138-65.942c-3.504,2.27-0.25,7.898,3.28,5.613
		c4.146-2.685,9.531-5.259,13.117-0.437c3.949,5.312,4.889,12.933,5.822,19.282c1.196,8.137,1.645,16.377,2.4,24.561
		c0.569,6.168,0.963,12.829,3.251,18.651c0.808,2.055,3.691,3.488,5.432,1.434c6.811-8.033,10.429-18.022,14.254-27.693
		c3.458-8.743,9.097-25.627,20.57-26.285c10.058-0.577,12.458,19.317,12.953,25.875c0.625,8.302-0.096,16.739,1.337,24.972
		c0.989,5.686,5.684,8.993,10.745,5.118c6.737-5.158,10.995-13.927,14.682-21.365c6.414-12.938,11.805-26.484,16.729-40.055
		c-1.333,0.757-2.665,1.513-3.998,2.27c5.907,2.444,11.814,4.89,17.722,7.334c-0.647-1.591-1.295-3.183-1.942-4.774
		c-11.465,23.852-22.979,48.243-37.348,70.502c-4.517,6.997-15.827,18.467-21.572,6.423c-2.967-6.222-3.547-13.885-4.26-20.634
		c-0.824-7.804-1.266-15.645-2.217-23.436c-0.511-4.183-1.115-8.41-2.474-12.413c-0.696-2.051-3.813-3.515-5.432-1.434
		c-3.771,4.85-5.937,10.741-8.145,16.418c-3.123,8.029-5.941,16.179-9.549,24.011c-2.828,6.138-6.345,13.506-12.451,16.999
		c-4.833,2.764-9.488-0.723-12.239-4.597C14.329,90.464,12.231,72.52,10.12,57.835C8.285,45.076,7.371,32.223,6.509,19.37
		C6.23,15.211-0.272,15.184,0.009,19.37L0.009,19.37z"/>
</g>
<g>
	<path fill="#DCC88B" d="M187.579,46.345c-15.078-6.621-30.747-2.295-41.675,9.717c-9.622,10.575-15.175,26.907-10.111,40.798
		c5.77,15.827,25.467,22.127,40.873,19.163c15.971-3.073,25.183-18.472,26.485-33.66c1.133-13.221-4.389-26.449-13.914-35.509
		c-3.035-2.887-7.638,1.702-4.596,4.596c11.967,11.384,15.831,29.735,8.092,44.605c-8.238,15.831-28.205,17.68-42.485,8.886
		c-13.188-8.121-11.184-25.795-4.603-37.492c7.708-13.702,23.439-22.172,38.654-15.49C188.098,53.626,191.41,48.027,187.579,46.345
		L187.579,46.345z"/>
</g>
<g>
	<path fill="#DCC88B" d="M168.075,68.018c-7.46,2.584-12.444,9.757-11.831,17.734c0.644,8.372,8.062,11.78,15.558,9.533
		c16.532-4.955,14.297-35.316-4.728-29.268c-3.979,1.265-2.278,7.541,1.728,6.268c4.462-1.419,7.492,0.742,7.967,5.407
		c0.49,4.812-2.172,9.531-6.694,11.325c-4.268,1.692-7.323-0.254-7.398-4.73c-0.075-4.438,3.01-8.576,7.126-10.002
		C173.738,72.922,172.046,66.642,168.075,68.018L168.075,68.018z"/>
</g>
<g>
	<path fill="#DCC88B" d="M207.319,47.828c5.304,9.049,6.485,20.32,6.896,30.599c0.436,10.887-0.198,22.958-4.505,33.12
		c-1.616,3.812,3.981,7.129,5.612,3.281c4.642-10.951,5.628-23.222,5.433-35.004c-0.196-11.805-1.75-24.914-7.823-35.277
		C210.814,40.935,205.195,44.204,207.319,47.828L207.319,47.828z"/>
</g>
<g>
	<path fill="#DCC88B" d="M212.423,46.485c1.652-1.825,5.195-6.06,8.141-4.608c3.452,1.7,4.197,7.924,4.757,11.175
		c0.71,4.125,6.973,2.37,6.268-1.729c-0.981-5.706-2.932-13.372-9.044-15.645c-5.739-2.134-11.103,2.216-14.717,6.211
		C205.023,44.989,209.606,49.6,212.423,46.485L212.423,46.485z"/>
</g>
<g>
	<path fill="#DCC88B" d="M213.313,117.438c6.242,0.165,12.483,0.33,18.726,0.495c1.757,0.047,3.271-1.514,3.25-3.25
		c-0.184-15.899,0.687-34.507,12.367-46.496c5.995-6.153,11.518-3.215,14.921,3.537c1.269,2.518,2.007,5.33,2.636,8.064
		c0.218,0.944,0.666,3.681,0.634,3.399c0.25,2.196,1.875,3.564,4.114,3.134c4.033-0.775,8.066-1.551,12.1-2.326
		c1.329-0.256,2.486-1.789,2.386-3.134c-1.041-13.918-4.864-35.453-19.195-41.762c-14.935-6.575-34.753,0.166-39.93,16.224
		c-1.29,4.001,4.987,5.701,6.268,1.729c3.878-12.027,21.162-17.983,32.679-11.157c6.79,4.023,9.524,13.89,11.322,20.993
		c1.153,4.56,2.005,9.277,2.356,13.974c0.795-1.045,1.591-2.089,2.386-3.134c-4.033,0.775-8.066,1.551-12.1,2.326
		c1.372,1.045,2.743,2.089,4.114,3.134c-1.312-11.541-8.837-30.556-23.731-23.787c-10.147,4.61-15.479,17.76-17.493,27.853
		c-1.785,8.948-2.438,18.309-2.333,27.43c1.083-1.083,2.167-2.167,3.25-3.25c-6.242-0.165-12.484-0.33-18.726-0.495
		C209.119,110.826,209.129,117.327,213.313,117.438L213.313,117.438z"/>
</g>
<g>
	<path fill="#DCC88B" d="M298.743,7.251c-1.086,36.995-6.653,73.709-12.884,110.136c-0.701,4.099,5.562,5.854,6.268,1.729
		c6.326-36.989,12.014-74.298,13.116-111.864C305.366,3.057,298.866,3.069,298.743,7.251L298.743,7.251z"/>
</g>
<g>
	<path fill="#DCC88B" d="M302.857,9.385c6.396-1.001,12.633-2.721,19.136-2.884c-1.083-1.083-2.167-2.167-3.25-3.25
		c-1.78,16.787-3.971,33.505-6.884,50.136c-0.434,2.473,2.213,5.538,4.774,3.671c10.452-7.622,20.591-15.592,30.233-24.221
		c3.189-2.854,6.959-6.676,11.255-7.747c3.329-0.829,6.984,7.808,8.064,9.802c0.17-1.313,0.339-2.626,0.509-3.938
		c-14.026,14.854-30.924,27.407-47.343,39.491c-1.888,1.39-2.295,4.306,0,5.613c5.345,3.045,10.524,6.403,15.583,9.899
		c7.421,5.129,16.46,11.2,20.724,19.428c1.44,2.777,0.01,5.229-2.977,5.92c-4.312,0.998-9.871-2.76-13.292-4.854
		c-8.836-5.406-16.408-12.633-24.1-19.498c-1.746-1.56-4.83-1.066-5.432,1.434c-1.657,6.891-2.204,14.014-4.159,20.834
		c-0.753,2.63-1.918,5.438-4.283,6.993c-3.346,2.198-8.287,0.174-11.56-1.097c-3.913-1.52-5.592,4.768-1.729,6.268
		c8.023,3.115,16.522,3.329,21.462-4.695c4.719-7.666,4.483-18.036,6.536-26.574c-1.811,0.478-3.621,0.956-5.432,1.434
		c9.135,8.154,18.213,16.757,29.062,22.62c7.64,4.129,22.656,6.369,23.048-6.444c0.296-9.666-12.294-18.233-18.921-23.28
		c-6.732-5.126-13.896-9.81-21.25-14c0,1.871,0,3.742,0,5.613C339.49,63.65,356.891,50.8,371.291,35.549
		c1.031-1.092,1.224-2.619,0.509-3.938c-2.372-4.375-4.967-9.572-9.521-12.063c-3.885-2.125-8.14-0.273-11.51,1.909
		c-6.054,3.919-11.191,9.266-16.675,13.906c-6.682,5.655-13.671,10.927-20.742,16.082c1.592,1.224,3.184,2.447,4.774,3.671
		c3.013-17.202,5.275-34.5,7.116-51.864c0.184-1.734-1.617-3.291-3.25-3.25c-7.09,0.178-13.892,2.024-20.864,3.116
		C296.998,3.764,298.757,10.026,302.857,9.385L302.857,9.385z"/>
</g>
<g>
	<path fill="#DCC88B" d="M427.285,27.933c-16.431-2.88-40.176-2.275-46.992,16.262c-7.994,21.742,18.89,29.04,30.9,39.93
		c4.695,4.256,4.853,9.635-0.567,13.071c-4.92,3.12-12.445,3.032-17.284-0.076c-5.793-3.722-12.978-14.593-20.704-7.667
		c-8.829,7.914-3.872,18.519,4.159,24.682c8.66,6.647,19.17,9.541,30.017,9.234c10.799-0.306,21.772-4.434,29.103-12.523
		c8.42-9.292,8.029-20.996,0.941-30.843c-3.639-5.055-8.458-9.077-13.392-12.805c-3.362-2.541-16.795-8.873-14.237-14.438
		c2.85-6.2,12.938-2.427,17.269-0.531c5.163,2.26,9.918,5.612,14.293,9.135c1.272,1.025,3.383,1.47,4.596,0
		c4.051-4.905,9.352-10.308,6.421-16.916C447.535,34.816,437.071,29.907,427.285,27.933c-4.093-0.826-5.836,5.439-1.729,6.268
		c7.733,1.56,15.653,4.739,19.829,11.841c1.526,2.596,1.147,2.66-0.547,5.298c-1.217,1.896-2.615,3.692-4.049,5.428
		c1.532,0,3.063,0,4.596,0c-7.656-6.166-16.632-12.357-26.647-13.557c-8.088-0.969-20.044,4.772-15.402,14.731
		c2.373,5.091,7.144,8.356,11.727,11.309c5.862,3.775,11.293,8.187,15.788,13.534c4.088,4.864,6.166,10.862,4.323,17.062
		c-1.843,6.199-7.817,10.703-13.314,13.461c-10.238,5.137-23.709,4.745-33.995,0.05c-5.09-2.323-10.036-5.856-12.835-10.781
		c-1.727-3.038-0.405-6.712,2.377-8.575c1.768-1.184,4.849,2.095,5.964,3.081c3.047,2.694,6.177,6.207,10.187,7.457
		c5.388,1.679,10.906,1.769,16.305,0.089c8.935-2.78,13.874-11.117,9.948-19.858c-6.466-14.399-32.926-15.119-34.204-32.606
		c-1.466-20.027,26.752-20.276,39.951-17.962C429.655,34.918,431.408,28.655,427.285,27.933z"/>
</g>
</svg>
